# xmcd
# 
# Track frame offsets:
#     150
#     17208
#     33257
#     51274
#     68396
#     88954
#     107959
#     124303
#     145741
#     173119
# 
# Disc length: 2570
# 
# Revision: 0
# Processed by: cddbd v1.5.2PL0 Copyright (c) Steve Scherf et al.
# Submitted via: fre:ac v1.1beta1pre5
# 
DISCID=880a080a
DTITLE=Sebastian Demrey and Jimmy Lahaie - Héritage cantiques and hymnes vol. 4
DYEAR=2017
DGENRE=Gospel
TTITLE0=A l'Agneau sur son trône
TTITLE1=Veux-tu briser du pêché le pouvoir
TTITLE2=La voix du Seigneur m'appelle
TTITLE3=A Golgotha
TTITLE4=Ne crains rien, je t'aime
TTITLE5=En Jésus seul
TTITLE6=Que mes regards
TTITLE7=Paix, ô mon âme
TTITLE8=Viens, mon âme te réclame
TTITLE9=Gloire gloire gloire
EXTD=YEAR: 2017
EXTT0=
EXTT1=
EXTT2=
EXTT3=
EXTT4=
EXTT5=
EXTT6=
EXTT7=
EXTT8=
EXTT9=
PLAYORDER=
